<?xml version="1.0" encoding="UTF-8" standalone="no"?>
<svg xmlns:dc="http://purl.org/dc/elements/1.1/" xmlns:cc="http://creativecommons.org/ns#" xmlns:rdf="http://www.w3.org/1999/02/22-rdf-syntax-ns#" xmlns:svg="http://www.w3.org/2000/svg" xmlns="http://www.w3.org/2000/svg" xmlns:sodipodi="http://sodipodi.sourceforge.net/DTD/sodipodi-0.dtd" xmlns:inkscape="http://www.inkscape.org/namespaces/inkscape" version="1.1" id="svg10" xml:space="preserve" width="583.23865" height="299.42133" viewBox="0 0 583.23865 299.42133" sodipodi:docname="Logo CHU-BDX.svg" inkscape:version="1.0.1 (3bc2e813f5, 2020-09-07)"><metadata id="metadata16"><rdf:RDF><cc:Work rdf:about=""><dc:format>image/svg+xml</dc:format><dc:type rdf:resource="http://purl.org/dc/dcmitype/StillImage"/><dc:title/></cc:Work></rdf:RDF></metadata><defs id="defs14"><clipPath clipPathUnits="userSpaceOnUse" id="clipPath30"><path d="M 0,224.566 H 437.429 V 0 H 0 Z" id="path28"/></clipPath></defs><sodipodi:namedview pagecolor="#ffffff" bordercolor="#666666" borderopacity="1" objecttolerance="10" gridtolerance="10" guidetolerance="10" inkscape:pageopacity="0" inkscape:pageshadow="2" inkscape:window-width="1680" inkscape:window-height="987" id="namedview12" showgrid="false" inkscape:zoom="1.7248514" inkscape:cx="228.42547" inkscape:cy="172.90107" inkscape:window-x="-8" inkscape:window-y="-8" inkscape:window-maximized="1" inkscape:current-layer="g18"/><g id="g18" inkscape:groupmode="layer" inkscape:label="Logo CHU-BDX" transform="matrix(1.3333333,0,0,-1.3333333,0,299.42133)"><path d="M 0,0 H 437.429 V 224.566 H 0 Z" style="fill:#ffffff;fill-opacity:1;fill-rule:nonzero;stroke:none" id="path20"/><path d="M 426.35,11.597 H 224.459 v 201.89 H 426.35 Z" style="fill:#005782;fill-opacity:1;fill-rule:nonzero;stroke:none" id="path22"/><g id="g24"><g id="g26" clip-path="url(#clipPath30)"><g id="g32" transform="translate(281.71,186.8729)"><path d="m 0,0 c 0,4.167 2.387,6.743 6.477,6.743 3.751,0 6.212,-2.538 6.212,-6.855 V -2.688 H 8.447 v 2.954 c 0,1.856 -0.72,2.765 -2.122,2.765 -1.401,0 -2.12,-0.909 -2.12,-2.765 v -14.923 c 0,-1.856 0.719,-2.802 2.12,-2.802 1.402,0 2.122,0.946 2.122,2.802 v 3.636 h 4.242 v -2.802 c 0,-4.736 -2.348,-7.311 -6.364,-7.311 -4.166,0 -6.325,2.538 -6.325,7.423 z" style="fill:#ffffff;fill-opacity:1;fill-rule:nonzero;stroke:none" id="path34"/></g><g id="g36" transform="translate(297.6621,193.0477)"><path d="M 0,0 H 10.756 V -3.863 H 4.128 V -10.87 H 8.9 v -3.865 H 4.128 v -7.992 h 6.628 v -4.014 H 0 Z" style="fill:#ffffff;fill-opacity:1;fill-rule:nonzero;stroke:none" id="path38"/></g><g id="g40" transform="translate(311.5137,193.0477)"><path d="m 0,0 h 3.712 l 5.226,-15.984 c 0.077,-0.227 0.379,-1.175 0.796,-2.841 -0.34,1.895 -0.454,3.144 -0.454,3.599 V 0 h 3.863 V -26.741 H 9.28 l -5.038,14.772 c -0.227,0.682 -0.567,1.629 -0.871,2.916 0.304,-1.893 0.454,-3.143 0.454,-3.712 V -26.741 H 0 Z" style="fill:#ffffff;fill-opacity:1;fill-rule:nonzero;stroke:none" id="path42"/></g><g id="g44" transform="translate(327.1201,193.0477)"><path d="M 0,0 H 12.727 V -3.863 H 8.408 V -26.741 H 4.28 V -3.863 H 0 Z" style="fill:#ffffff;fill-opacity:1;fill-rule:nonzero;stroke:none" id="path46"/></g><g id="g48" transform="translate(346.4004,181.4198)"><path d="m 0,0 h 1.629 c 2.008,0 2.538,1.098 2.538,4.053 0,2.841 -0.682,3.712 -2.689,3.712 L 0,7.765 Z m 0,-15.113 h -4.129 v 26.741 h 6.061 c 4.469,0 6.439,-2.234 6.439,-7.727 0,-3.182 -0.682,-5.228 -2.613,-6.591 l 3.03,-12.423 H 4.508 L 1.97,-3.863 H 0 Z" style="fill:#ffffff;fill-opacity:1;fill-rule:nonzero;stroke:none" id="path50"/></g><g id="g52" transform="translate(358.1523,193.0477)"><path d="M 0,0 H 10.756 V -3.863 H 4.128 V -10.87 H 8.9 v -3.865 H 4.128 v -7.992 h 6.628 v -4.014 H 0 Z" style="fill:#ffffff;fill-opacity:1;fill-rule:nonzero;stroke:none" id="path54"/></g><g id="g56" transform="translate(256.5459,148.2904)"><path d="M 0,0 V -10.908 H 4.129 V 0 H 8.258 V -26.741 H 4.129 v 11.97 H 0 v -11.97 H -4.09 V 0 Z" style="fill:#ffffff;fill-opacity:1;fill-rule:nonzero;stroke:none" id="path58"/></g><g id="g60" transform="translate(276.7021,142.3817)"><path d="M 0,0 C 0,1.856 -0.72,2.765 -2.121,2.765 -3.522,2.765 -4.242,1.856 -4.242,0 v -14.923 c 0,-1.856 0.72,-2.802 2.121,-2.802 1.401,0 2.121,0.946 2.121,2.802 z m -1.97,6.477 c 3.75,0 6.212,-2.539 6.212,-6.855 v -13.711 c 0,-4.736 -2.348,-7.311 -6.363,-7.311 -4.091,0 -6.325,2.538 -6.325,7.423 v 13.711 c 0,4.168 2.385,6.743 6.476,6.743" style="fill:#ffffff;fill-opacity:1;fill-rule:nonzero;stroke:none" id="path62"/></g><g id="g64" transform="translate(287.6406,128.9364)"><path d="m 0,0 c 0.151,-2.69 0.985,-3.978 2.728,-3.978 1.514,0 2.538,1.022 2.538,2.576 0,2.234 -1.516,3.597 -3.712,5.795 -2.992,2.992 -5.115,5.189 -5.115,8.711 0,3.865 2.917,6.704 6.403,6.704 3.408,0 5.87,-2.461 6.174,-6.628 L 5,12.611 c -0.151,2.312 -0.758,3.334 -2.272,3.334 -1.289,0 -2.197,-0.946 -2.197,-2.461 0,-2.424 1.781,-4.053 4.128,-6.326 C 7.5,4.393 9.28,2.385 9.28,-1.326 c 0,-3.939 -2.726,-6.666 -6.401,-6.666 -4.015,0 -6.628,2.688 -6.818,7.385 z" style="fill:#ffffff;fill-opacity:1;fill-rule:nonzero;stroke:none" id="path66"/></g><g id="g68" transform="translate(305.6084,136.2454)"><path d="m 0,0 c 2.045,0 2.537,1.137 2.537,4.243 0,2.992 -0.605,3.939 -2.688,3.939 h -1.478 l 0,-8.182 z m -5.758,12.045 h 6.061 c 4.469,0 6.439,-2.273 6.439,-7.726 0,-5.228 -2.235,-8.145 -5.53,-8.145 h -2.841 v -10.87 h -4.129 z" style="fill:#ffffff;fill-opacity:1;fill-rule:nonzero;stroke:none" id="path70"/></g><path d="m 315.295,148.29 h 4.204 v -26.741 h -4.204 z" style="fill:#ffffff;fill-opacity:1;fill-rule:nonzero;stroke:none" id="path72"/><g id="g74" transform="translate(321.9072,148.2904)"><path d="M 0,0 H 12.727 V -3.863 H 8.408 V -26.741 H 4.28 V -3.863 H 0 Z" style="fill:#ffffff;fill-opacity:1;fill-rule:nonzero;stroke:none" id="path76"/></g><g id="g78" transform="translate(342.8965,131.1317)"><path d="M 0,0 -1.402,11.174 H -1.667 L -3.145,0 Z M -4.204,17.159 H 1.173 L 5.567,-9.582 H 1.325 l -0.834,5.795 h -4.166 l -0.871,-5.795 h -4.053 z" style="fill:#ffffff;fill-opacity:1;fill-rule:nonzero;stroke:none" id="path80"/></g><g id="g82" transform="translate(351.1504,148.2904)"><path d="m 0,0 h 4.091 v -22.877 h 6.401 v -3.864 H 0 Z" style="fill:#ffffff;fill-opacity:1;fill-rule:nonzero;stroke:none" id="path84"/></g><path d="m 364.312,148.29 h 4.203 v -26.741 h -4.203 z" style="fill:#ffffff;fill-opacity:1;fill-rule:nonzero;stroke:none" id="path86"/><g id="g88" transform="translate(372.1719,148.2904)"><path d="M 0,0 H 10.758 V -3.863 H 4.129 v -7.007 h 4.772 v -3.864 H 4.129 v -7.992 h 6.629 v -4.015 H 0 Z" style="fill:#ffffff;fill-opacity:1;fill-rule:nonzero;stroke:none" id="path90"/></g><g id="g92" transform="translate(390.1348,136.6624)"><path d="m 0,0 h 1.629 c 2.007,0 2.537,1.098 2.537,4.053 0,2.841 -0.682,3.712 -2.688,3.712 L 0,7.765 Z m 0,-15.113 h -4.129 v 26.741 h 6.061 c 4.469,0 6.439,-2.234 6.439,-7.726 0,-3.182 -0.682,-5.228 -2.613,-6.591 l 3.03,-12.424 H 4.508 L 1.97,-3.863 H 0 Z" style="fill:#ffffff;fill-opacity:1;fill-rule:nonzero;stroke:none" id="path94"/></g><g id="g96" transform="translate(243.7178,103.5335)"><path d="m 0,0 v -20.719 c 0,-1.628 0.946,-2.537 2.197,-2.537 1.25,0 2.083,0.909 2.083,2.537 V 0 h 4.204 v -19.998 c 0,-4.735 -2.31,-7.311 -6.326,-7.311 -4.09,0 -6.362,2.538 -6.362,7.424 V 0 Z" style="fill:#ffffff;fill-opacity:1;fill-rule:nonzero;stroke:none" id="path98"/></g><g id="g100" transform="translate(255.7949,103.5335)"><path d="m 0,0 h 3.712 l 5.226,-15.983 c 0.076,-0.227 0.379,-1.176 0.796,-2.842 -0.341,1.895 -0.455,3.144 -0.455,3.599 V 0 h 3.864 V -26.741 H 9.279 l -5.038,14.772 c -0.226,0.682 -0.567,1.629 -0.871,2.916 0.304,-1.892 0.455,-3.143 0.455,-3.711 V -26.741 H 0 Z" style="fill:#ffffff;fill-opacity:1;fill-rule:nonzero;stroke:none" id="path102"/></g><path d="m 272.651,103.534 h 4.203 V 76.793 h -4.203 z" style="fill:#ffffff;fill-opacity:1;fill-rule:nonzero;stroke:none" id="path104"/><g id="g106" transform="translate(283.5537,103.5335)"><path d="m 0,0 2.462,-15.833 c 0.227,-1.438 0.454,-3.257 0.454,-5.567 v -0.493 c 0.076,2.727 0.266,4.734 0.455,6.06 L 5.758,0 H 9.81 L 5.076,-26.741 H 0.757 L -4.015,0 Z" style="fill:#ffffff;fill-opacity:1;fill-rule:nonzero;stroke:none" id="path108"/></g><g id="g110" transform="translate(296.1035,103.5335)"><path d="M 0,0 H 10.757 V -3.863 H 4.128 V -10.87 H 8.9 v -3.864 H 4.128 v -7.993 h 6.629 v -4.014 l -10.757,0 z" style="fill:#ffffff;fill-opacity:1;fill-rule:nonzero;stroke:none" id="path112"/></g><g id="g114" transform="translate(314.0654,91.9056)"><path d="m 0,0 h 1.629 c 2.007,0 2.537,1.098 2.537,4.053 0,2.841 -0.682,3.712 -2.688,3.712 L 0,7.765 Z M 0,-15.113 H -4.129 V 11.628 H 1.932 C 6.401,11.628 8.37,9.394 8.37,3.902 8.37,0.72 7.688,-1.326 5.757,-2.69 l 3.03,-12.423 H 4.508 L 1.969,-3.863 H 0 Z" style="fill:#ffffff;fill-opacity:1;fill-rule:nonzero;stroke:none" id="path116"/></g><g id="g118" transform="translate(328.7363,84.1795)"><path d="m 0,0 c 0.151,-2.69 0.985,-3.978 2.727,-3.978 1.515,0 2.539,1.022 2.539,2.576 0,2.234 -1.516,3.597 -3.712,5.795 -2.992,2.992 -5.115,5.189 -5.115,8.711 0,3.865 2.917,6.704 6.403,6.704 3.408,0 5.87,-2.461 6.173,-6.628 L 5,12.611 C 4.849,14.923 4.242,15.945 2.727,15.945 1.439,15.945 0.53,14.999 0.53,13.484 0.53,11.06 2.311,9.431 4.659,7.158 7.5,4.393 9.28,2.385 9.28,-1.327 c 0,-3.938 -2.727,-6.665 -6.401,-6.665 -4.015,0 -6.628,2.688 -6.818,7.385 z" style="fill:#ffffff;fill-opacity:1;fill-rule:nonzero;stroke:none" id="path120"/></g><path d="m 340.962,103.534 h 4.203 V 76.793 h -4.203 z" style="fill:#ffffff;fill-opacity:1;fill-rule:nonzero;stroke:none" id="path122"/><g id="g124" transform="translate(347.5732,103.5335)"><path d="M 0,0 H 12.727 V -3.863 H 8.408 V -26.741 H 4.28 V -3.863 H 0 Z" style="fill:#ffffff;fill-opacity:1;fill-rule:nonzero;stroke:none" id="path126"/></g><g id="g128" transform="translate(368.5625,86.3748)"><path d="M 0,0 -1.402,11.174 H -1.667 L -3.145,0 Z M -4.205,17.159 H 1.174 L 5.567,-9.582 H 1.325 l -0.834,5.794 h -4.165 l -0.872,-5.794 h -4.053 z" style="fill:#ffffff;fill-opacity:1;fill-rule:nonzero;stroke:none" id="path130"/></g><path d="m 376.817,103.534 h 4.203 V 76.793 h -4.203 z" style="fill:#ffffff;fill-opacity:1;fill-rule:nonzero;stroke:none" id="path132"/><g id="g134" transform="translate(388.7881,91.9056)"><path d="m 0,0 h 1.629 c 2.007,0 2.538,1.098 2.538,4.053 0,2.841 -0.683,3.712 -2.689,3.712 L 0,7.765 Z m 0,-15.113 h -4.129 v 26.741 h 6.061 c 4.469,0 6.439,-2.234 6.439,-7.726 0,-3.182 -0.682,-5.228 -2.613,-6.592 l 3.03,-12.423 H 4.508 L 1.97,-3.863 H 0 Z" style="fill:#ffffff;fill-opacity:1;fill-rule:nonzero;stroke:none" id="path136"/></g><g id="g138" transform="translate(400.5391,103.5335)"><path d="M 0,0 H 10.756 V -3.863 H 4.128 V -10.87 H 8.9 v -3.864 H 4.128 v -7.993 h 6.628 v -4.014 l -10.756,0 z" style="fill:#ffffff;fill-opacity:1;fill-rule:nonzero;stroke:none" id="path140"/></g><g id="g142" transform="translate(270.917,35.8988)"><path d="m 0,0 c 1.78,0 2.575,1.212 2.575,3.826 0,2.917 -0.833,4.053 -3.03,4.053 H -1.78 L -1.78,0 Z m -0.113,11.742 c 1.476,0 2.385,1.288 2.385,3.674 0,2.614 -0.871,3.599 -2.727,3.599 H -1.78 v -7.273 z m -5.758,11.136 h 5.455 c 4.431,0 6.894,-2.576 6.894,-6.97 C 6.478,13.22 5.529,11.25 3.599,9.811 5.795,8.56 6.817,6.516 6.817,3.295 c 0,-4.924 -2.12,-7.158 -6.589,-7.158 h -6.099 z" style="fill:#ffffff;fill-opacity:1;fill-rule:nonzero;stroke:none" id="path144"/></g><g id="g146" transform="translate(289.1309,52.8675)"><path d="m 0,0 c 0,1.856 -0.721,2.766 -2.122,2.766 -1.401,0 -2.12,-0.91 -2.12,-2.766 v -14.923 c 0,-1.856 0.719,-2.802 2.12,-2.802 1.401,0 2.122,0.946 2.122,2.802 z m -1.971,6.478 c 3.751,0 6.213,-2.539 6.213,-6.856 v -13.711 c 0,-4.736 -2.348,-7.311 -6.364,-7.311 -4.091,0 -6.325,2.539 -6.325,7.423 v 13.711 c 0,4.168 2.386,6.744 6.476,6.744" style="fill:#ffffff;fill-opacity:1;fill-rule:nonzero;stroke:none" id="path148"/></g><g id="g150" transform="translate(300.9336,47.1488)"><path d="m 0,0 h 1.629 c 2.007,0 2.537,1.098 2.537,4.053 0,2.841 -0.682,3.712 -2.688,3.712 L 0,7.765 Z m 0,-15.113 h -4.129 v 26.741 h 6.061 c 4.469,0 6.439,-2.234 6.439,-7.726 0,-3.183 -0.682,-5.229 -2.613,-6.592 L 8.787,-15.113 H 4.508 L 1.97,-3.863 H 0 Z" style="fill:#ffffff;fill-opacity:1;fill-rule:nonzero;stroke:none" id="path152"/></g><g id="g154" transform="translate(318.8574,35.9744)"><path d="m 0,0 c 1.553,0 2.159,0.985 2.159,2.804 v 12.877 c 0,2.197 -1.022,3.182 -3.295,3.182 H -2.083 V 0 Z m -6.174,22.802 h 5.871 c 4.583,0 6.666,-2.385 6.666,-7.348 V 3.523 c 0,-5.113 -1.893,-7.461 -6.476,-7.461 h -6.061 z" style="fill:#ffffff;fill-opacity:1;fill-rule:nonzero;stroke:none" id="path156"/></g><g id="g158" transform="translate(328.6514,58.7767)"><path d="M 0,0 H 10.756 V -3.863 H 4.127 V -10.87 H 8.9 v -3.865 H 4.127 v -7.992 h 6.629 v -4.014 H 0 Z" style="fill:#ffffff;fill-opacity:1;fill-rule:nonzero;stroke:none" id="path160"/></g><g id="g162" transform="translate(350.1699,41.618)"><path d="M 0,0 -1.402,11.174 H -1.667 L -3.145,0 Z M -4.205,17.159 H 1.174 L 5.567,-9.582 H 1.325 l -0.834,5.794 h -4.166 l -0.871,-5.794 h -4.053 z" style="fill:#ffffff;fill-opacity:1;fill-rule:nonzero;stroke:none" id="path164"/></g><g id="g166" transform="translate(362.0713,58.7767)"><path d="m 0,0 v -20.719 c 0,-1.628 0.947,-2.537 2.197,-2.537 1.25,0 2.083,0.909 2.083,2.537 V 0 h 4.204 v -19.998 c 0,-4.736 -2.31,-7.311 -6.325,-7.311 -4.091,0 -6.363,2.538 -6.363,7.423 l 0,19.886 z" style="fill:#ffffff;fill-opacity:1;fill-rule:nonzero;stroke:none" id="path168"/></g><g id="g170" transform="translate(377.8105,45.6341)"><path d="m 0,0 -4.811,13.143 h 4.281 l 2.5,-7.878 h 0.188 l 2.653,7.878 H 9.015 L 4.355,0.341 9.431,-13.598 H 5.113 L 2.424,-4.887 H 2.272 l -2.916,-8.711 h -4.242 z" style="fill:#ffffff;fill-opacity:1;fill-rule:nonzero;stroke:none" id="path172"/></g><path d="M 213.057,11.597 H 11.167 v 201.89 h 201.89 z" style="fill:#04a06f;fill-opacity:1;fill-rule:nonzero;stroke:none" id="path174"/><g id="g176" transform="translate(207.9121,112.5418)"><path d="m 0,0 c 0,-52.909 -42.891,-95.8 -95.8,-95.8 -52.909,0 -95.8,42.891 -95.8,95.8 0,52.909 42.891,95.8 95.8,95.8 C -42.891,95.8 0,52.909 0,0" style="fill:#005782;fill-opacity:1;fill-rule:nonzero;stroke:none" id="path178"/></g><g id="g180" transform="translate(101.4771,116.3255)"><path d="M 0,0 H -11.718 V 79.799 H 0 v -34.2 h 20.319 v 34.2 H 32.25 V 0 H 20.319 V 34.2 H 0 Z" style="fill:#ffffff;fill-opacity:1;fill-rule:nonzero;stroke:none" id="path182"/></g><g id="g184" transform="translate(49.792,64.7269)"><path d="m 0,0 v -24.51 h 14.613 c 3.942,0 6.073,1.939 6.073,7.866 v 6.955 C 20.686,-2.28 18.449,0 13.122,0 Z M 0,32.49 V 11.4 h 12.483 c 4.368,0 7.031,2.052 7.031,8.436 v 4.446 c 0,5.699 -1.811,8.208 -5.966,8.208 z m 31.231,-6.954 v -2.85 c 0,-8.208 -2.343,-13.452 -7.563,-16.074 6.286,-2.622 8.736,-8.664 8.736,-17.099 v -6.498 c 0,-12.312 -6.073,-18.924 -17.791,-18.924 H -11.718 V 43.89 h 25.586 c 12.144,0 17.363,-6.042 17.363,-18.354" style="fill:#ffffff;fill-opacity:1;fill-rule:nonzero;stroke:none" id="path186"/></g><g id="g188" transform="translate(185.2539,108.6165)"><path d="m 0,0 -15.669,-38.759 16.566,-41.04 h -13.008 l -12.865,31.578 -12.978,-31.578 h -11.549 l 16.565,41.04 L -48.606,0 h 12.783 L -23.743,-29.412 -11.438,0 Z" style="fill:#ffffff;fill-opacity:1;fill-rule:nonzero;stroke:none" id="path190"/></g><g id="g192" transform="translate(174.2505,196.2655)"><path d="m 0,0 v -60.673 c 0,-5.7 -2.344,-7.752 -6.072,-7.752 h -0.018 -9.451 -0.006 c -3.728,0 -6.072,2.052 -6.072,7.752 V 0 h -11.08 v -59.875 c 0.002,-12.649 5.988,-19.99 17.161,-20.053 v -0.012 l 9.146,0.003 v -0.002 c 0.023,0 0.044,0.002 0.066,0.002 l 0.242,10e-4 v 0.009 c 11.299,0.133 17.164,7.401 17.164,20.052 L 11.08,0 Z" style="fill:#ffffff;fill-opacity:1;fill-rule:nonzero;stroke:none" id="path194"/></g><g id="g196" transform="translate(70.3203,135.5911)"><path d="m 0,0 c 0,-5.675 -2.324,-7.732 -6.024,-7.75 0.316,0.011 2.201,0.078 -0.053,-0.002 -2.451,-0.087 -6.073,-0.13 -8.71,0.013 -3.385,0.072 -5.741,2.212 -5.741,7.739 v 41.249 c 0,5.531 2.211,7.728 5.748,7.854 0.483,0.021 8.305,0.013 8.39,0.013 v -10e-4 c 0.107,0.003 0.209,0 0.318,0 3.729,0 6.072,-2.166 6.072,-7.866 v -2.865 h 11.079 v 2.067 c 0,12.768 -5.965,20.064 -17.471,20.064 l -8.384,-10e-4 v 10e-4 c -0.008,0 -0.016,-10e-4 -0.023,-10e-4 h -0.073 v -0.003 c -11.44,-0.042 -17.375,-7.329 -17.375,-20.06 V 0.798 c 0,-12.741 5.943,-20.03 17.4,-20.061 v -0.003 h 8.265 l 0.19,10e-4 v -10e-4 c 0.01,0 0.018,10e-4 0.027,10e-4 l 0.082,0.001 v 0.003 c 11.432,0.047 17.362,7.333 17.362,20.059 V 2.455 L 0,2.455 Z" style="fill:#ffffff;fill-opacity:1;fill-rule:nonzero;stroke:none" id="path198"/></g><g id="g200" transform="translate(119.5962,47.0555)"><path d="m 0,0 c -3.276,-4.925 -7.517,-7.386 -12.72,-7.386 h -5.759 v 58.005 h 5.759 c 5.203,0 9.444,-2.463 12.72,-7.387 C 3.274,38.307 4.912,31.012 4.912,21.346 4.912,12.038 3.274,4.924 0,0 m 14.92,37.983 c -1.086,4.881 -2.745,9.056 -4.979,12.523 -2.232,3.465 -5.071,6.128 -8.514,7.993 -3.443,1.862 -7.522,2.794 -12.237,2.794 h -19.027 v -79.152 h 19.027 c 4.715,0 8.794,0.931 12.237,2.794 3.443,1.862 6.282,4.51 8.514,7.939 2.234,3.427 3.893,7.563 4.979,12.409 1.085,4.844 1.629,10.247 1.629,16.211 0,6.11 -0.544,11.607 -1.629,16.489" style="fill:#ffffff;fill-opacity:1;fill-rule:nonzero;stroke:none" id="path202"/></g></g></g></g></svg>